<svg width="1512" height="904" viewBox="0 0 1512 904" fill="none" xmlns="http://www.w3.org/2000/svg">
<ellipse cx="30.5" cy="239.827" rx="191.5" ry="182.612" fill="#C69A1F"/>
<ellipse cx="245" cy="278.447" rx="115" ry="109.662" fill="#C69A1F"/>
<ellipse cx="435" cy="347.582" rx="131" ry="96.789" fill="#C69A1F"/>
<ellipse cx="1531" cy="193.578" rx="141" ry="133.502" fill="#C69A1F"/>
<ellipse cx="677.5" cy="377.143" rx="130.5" ry="126.35" fill="#C69A1F"/>
<ellipse cx="906" cy="304.671" rx="172" ry="117.768" fill="#C69A1F"/>
<ellipse cx="565.5" cy="328.511" rx="67.5" ry="59.5992" fill="#C69A1F"/>
<ellipse cx="1274.5" cy="169.262" rx="177.5" ry="169.262" fill="#C69A1F"/>
<ellipse cx="1074.5" cy="259.375" rx="132.5" ry="124.92" fill="#C69A1F"/>
<ellipse cx="434.5" cy="455.337" rx="114.5" ry="85.346" fill="#EFD386"/>
<ellipse cx="582" cy="469.164" rx="93" ry="99.173" fill="#EFD386"/>
<ellipse cx="704" cy="530.671" rx="71" ry="86.2996" fill="#EFD386"/>
<ellipse cx="837" cy="431.021" rx="121" ry="103.941" fill="#EFD386"/>
<ellipse cx="991.5" cy="401.937" rx="149.5" ry="142.561" fill="#EFD386"/>
<ellipse cx="1235.5" cy="345.198" rx="138.5" ry="114.43" fill="#EFD386"/>
<ellipse cx="230.5" cy="443.894" rx="156.5" ry="157.819" fill="#EFD386"/>
<ellipse cx="43" cy="493.004" rx="194" ry="242.211" fill="#D1B977"/>
<ellipse cx="272" cy="570.722" rx="182" ry="139.7" fill="#D1B977"/>
<ellipse cx="464" cy="594.085" rx="67" ry="134.456" fill="#D1B977"/>
<ellipse cx="111.5" cy="61.0295" rx="111.5" ry="61.0295" transform="matrix(1 0 0 -1 489 615.063)" fill="#D1B977"/>
<ellipse cx="1442" cy="401.937" rx="213" ry="255.084" fill="#D1B977"/>
<ellipse cx="1235.5" cy="434.359" rx="157.5" ry="148.283" fill="#D1B977"/>
<ellipse cx="717.5" cy="540.683" rx="42.5" ry="59.1224" fill="#D1B977"/>
<ellipse cx="807.5" cy="514.937" rx="79.5" ry="70.5654" fill="#D1B977"/>
<ellipse cx="916.5" cy="481.561" rx="79.5" ry="97.2658" fill="#D1B977"/>
<ellipse cx="1049" cy="416.24" rx="109" ry="52.9241" fill="#D1B977"/>
<rect y="549" width="1512" height="359.502" fill="#D1B977"/>
<rect x="958" y="444.371" width="200" height="209.789" fill="#D1B977"/>
</svg>
