<svg width="85" height="65" viewBox="0 0 85 65" fill="none" xmlns="http://www.w3.org/2000/svg">
<path d="M71.9579 5.44348C66.4468 2.91251 60.6306 1.10714 54.655 0.0725378C54.6009 0.0634208 54.5453 0.0712949 54.4958 0.0950776C54.4464 0.11886 54.4055 0.157384 54.3788 0.20535C53.6297 1.53348 52.801 3.27066 52.2219 4.63066C45.781 3.65402 39.2297 3.65402 32.7888 4.63066C32.1456 3.11439 31.4148 1.6368 30.6 0.20535C30.5734 0.157384 30.5325 0.11886 30.483 0.0950776C30.4335 0.0712949 30.3779 0.0634208 30.3238 0.0725378C24.3472 1.10316 18.53 2.90941 13.021 5.44348C12.9736 5.46107 12.9341 5.49497 12.9094 5.5391C1.89129 22.0025 -1.13152 38.0622 0.350668 53.92C0.361293 53.998 0.39848 54.0635 0.46223 54.1166C6.87956 58.8671 14.0557 62.4956 21.6857 64.8478C21.7395 64.8648 21.7974 64.8642 21.8509 64.8461C21.9044 64.8279 21.9508 64.7932 21.9832 64.7469C23.623 62.5157 25.0715 60.1622 26.3288 57.6866C26.3549 57.6356 26.3639 57.5775 26.3543 57.5211C26.3447 57.4646 26.3171 57.4127 26.2757 57.3732L26.18 57.3147C23.8923 56.4326 21.6757 55.3759 19.55 54.1538C19.4907 54.1202 19.4466 54.065 19.4268 53.9997C19.407 53.9345 19.4131 53.8641 19.4438 53.8032L19.5235 53.7022C19.9733 53.3658 20.4124 53.0205 20.841 52.6663C20.8785 52.6361 20.9236 52.6167 20.9713 52.6101C21.019 52.6036 21.0676 52.6101 21.1119 52.6291C35.0254 58.9828 50.0863 58.9828 63.8297 52.6291C63.8754 52.608 63.9261 52.6003 63.9759 52.6069C64.0257 52.6135 64.0727 52.6341 64.1113 52.6663C64.5398 53.0205 64.979 53.3658 65.4288 53.7022C65.4662 53.7278 65.4964 53.7625 65.5166 53.8031C65.5368 53.8436 65.5463 53.8887 65.5441 53.9339C65.542 53.9792 65.5283 54.0231 65.5044 54.0616C65.4805 54.1001 65.4472 54.1318 65.4075 54.1538C63.291 55.3952 61.0709 56.4511 58.7722 57.3094C58.7356 57.3227 58.7023 57.3438 58.6748 57.3714C58.6473 57.3989 58.6261 57.4322 58.6129 57.4688C58.5999 57.5041 58.5947 57.5419 58.5974 57.5794C58.6002 57.617 58.6109 57.6535 58.6288 57.6866C59.9038 60.1569 61.3647 62.5157 62.9691 64.7469C63.0015 64.7932 63.0478 64.8279 63.1013 64.8461C63.1548 64.8642 63.2127 64.8648 63.2666 64.8478C70.9116 62.5086 78.1003 58.8792 84.5219 54.1166C84.5538 54.0941 84.5804 54.0648 84.5996 54.0308C84.6189 53.9968 84.6305 53.959 84.6335 53.92C86.4079 35.5866 81.6638 19.6597 72.0641 5.54441C72.0558 5.52032 72.0418 5.49857 72.0233 5.48101C72.0048 5.46344 71.9823 5.45057 71.9579 5.44348ZM28.406 44.2619C24.2144 44.2619 20.7666 40.4157 20.7666 35.6982C20.7666 30.9807 24.1507 27.1291 28.406 27.1291C32.6932 27.1291 36.1091 31.0072 36.0454 35.6982C36.0454 40.4157 32.6613 44.2619 28.406 44.2619ZM56.6472 44.2619C52.461 44.2619 49.0079 40.4157 49.0079 35.6982C49.0079 30.9807 52.3919 27.1291 56.6472 27.1291C60.9344 27.1291 64.3557 31.0072 64.2866 35.6982C64.2866 40.4157 60.9344 44.2619 56.6472 44.2619Z" fill="#C83636"/>
</svg>
