<svg width="85" height="64" viewBox="0 0 85 64" fill="none" xmlns="http://www.w3.org/2000/svg">
<path d="M85 8.71084V57.9719C85 61.1735 82.4075 63.766 79.2058 63.766H65.6802V30.9277L42.5 48.3173L19.3198 30.9277V63.7696H5.79417C5.03297 63.7696 4.27923 63.6196 3.57602 63.3282C2.87281 63.0368 2.23391 62.6097 1.69582 62.0713C1.15774 61.5329 0.731015 60.8937 0.440039 60.1903C0.149063 59.4869 -0.000464198 58.7331 1.08252e-06 57.9719V8.71084C1.08252e-06 1.54605 8.17771 -2.54458 13.9081 1.75501L19.3198 5.8173L42.5 23.1998L65.6802 5.81021L71.0919 1.75501C76.8187 -2.54104 85 1.54605 85 8.71084Z" fill="#C83636"/>
</svg>
