<svg width="67" height="67" viewBox="0 0 67 67" fill="none" xmlns="http://www.w3.org/2000/svg">
<path d="M33.5 22.4351C27.4073 22.4351 22.4351 27.4073 22.4351 33.5C22.4351 39.5928 27.4073 44.565 33.5 44.565C39.5928 44.565 44.565 39.5928 44.565 33.5C44.565 27.4073 39.5928 22.4351 33.5 22.4351ZM66.6866 33.5C66.6866 28.918 66.7281 24.3775 66.4707 19.8037C66.2134 14.4912 65.0015 9.77639 61.1167 5.89163C57.2237 1.99856 52.5171 0.794949 47.2046 0.537625C42.6226 0.280301 38.0821 0.321805 33.5083 0.321805C28.9263 0.321805 24.3858 0.280301 19.812 0.537625C14.4995 0.794949 9.7847 2.00686 5.89993 5.89163C2.00686 9.7847 0.80325 14.4912 0.545926 19.8037C0.288602 24.3858 0.330106 28.9263 0.330106 33.5C0.330106 38.0738 0.288602 42.6226 0.545926 47.1963C0.80325 52.5088 2.01516 57.2237 5.89993 61.1084C9.793 65.0015 14.4995 66.2051 19.812 66.4624C24.3941 66.7197 28.9346 66.6783 33.5083 66.6783C38.0904 66.6783 42.6309 66.7197 47.2046 66.4624C52.5171 66.2051 57.232 64.9932 61.1167 61.1084C65.0098 57.2154 66.2134 52.5088 66.4707 47.1963C66.7364 42.6226 66.6866 38.0821 66.6866 33.5ZM33.5 50.5249C24.0786 50.5249 16.4751 42.9214 16.4751 33.5C16.4751 24.0786 24.0786 16.4751 33.5 16.4751C42.9214 16.4751 50.5249 24.0786 50.5249 33.5C50.5249 42.9214 42.9214 50.5249 33.5 50.5249ZM51.2222 19.7539C49.0225 19.7539 47.2461 17.9776 47.2461 15.7779C47.2461 13.5782 49.0225 11.8018 51.2222 11.8018C53.4219 11.8018 55.1983 13.5782 55.1983 15.7779C55.1989 16.3002 55.0965 16.8175 54.8969 17.3002C54.6974 17.7829 54.4045 18.2215 54.0352 18.5908C53.6658 18.9602 53.2272 19.253 52.7446 19.4526C52.2619 19.6522 51.7445 19.7546 51.2222 19.7539Z" fill="#C83636"/>
</svg>
