<svg width="85" height="57" viewBox="0 0 85 57" fill="none" xmlns="http://www.w3.org/2000/svg">
<path d="M83.2314 8.89569C82.7479 7.17979 81.8107 5.62597 80.5185 4.39777C79.1879 3.13341 77.557 2.22898 75.7798 1.76985C69.1285 0.0167296 42.481 0.01673 42.481 0.01673C31.372 -0.106327 20.2659 0.449569 9.22477 1.68131C7.44753 2.17436 5.81968 3.099 4.48602 4.37298C3.1756 5.63381 2.22644 7.18861 1.7306 8.89215C0.537603 15.3085 -0.0411246 21.8239 0.00227055 28.3501C-0.0402294 34.8703 0.537062 41.3834 1.7306 47.808C2.21581 49.5044 3.16144 51.0522 4.4754 52.3024C5.78935 53.5526 7.4256 54.4557 9.22477 54.9338C15.9646 56.6834 42.481 56.6834 42.481 56.6834C53.6042 56.8082 64.7245 56.2523 75.7798 55.0188C77.557 54.5597 79.1879 53.6553 80.5185 52.3909C81.8094 51.1623 82.7453 49.6085 83.2279 47.893C84.4496 41.4788 85.0439 34.9609 85.0023 28.4315C85.0936 21.8745 84.5002 15.3294 83.2314 8.89569ZM34.0094 40.4767V16.2269L56.1802 28.3536L34.0094 40.4767Z" fill="#C83636"/>
</svg>
